<svg width="800" height="800" viewBox="0 0 800 800" xmlns="http://www.w3.org/2000/svg">
  <defs>
    <pattern id="topo-pattern" patternUnits="userSpaceOnUse" width="200" height="200">
      <path d="M0,50 Q50,0 100,50 T200,50" fill="none" stroke="#4A6D33" stroke-width="1" opacity="0.2" />
      <path d="M0,70 Q50,20 100,70 T200,70" fill="none" stroke="#4A6D33" stroke-width="1" opacity="0.2" />
      <path d="M0,90 Q50,40 100,90 T200,90" fill="none" stroke="#4A6D33" stroke-width="1" opacity="0.2" />
      <path d="M0,110 Q50,60 100,110 T200,110" fill="none" stroke="#4A6D33" stroke-width="1" opacity="0.2" />
      <path d="M0,130 Q50,80 100,130 T200,130" fill="none" stroke="#4A6D33" stroke-width="1" opacity="0.2" />
      <path d="M0,150 Q50,100 100,150 T200,150" fill="none" stroke="#4A6D33" stroke-width="1" opacity="0.2" />
      <path d="M0,170 Q50,120 100,170 T200,170" fill="none" stroke="#4A6D33" stroke-width="1" opacity="0.2" />
      
      <circle cx="50" cy="50" r="3" fill="#D4A72C" opacity="0.3" />
      <circle cx="150" cy="130" r="2" fill="#D4A72C" opacity="0.3" />
      <circle cx="100" cy="180" r="2" fill="#D4A72C" opacity="0.3" />
      <circle cx="20" cy="120" r="2" fill="#D4A72C" opacity="0.3" />
      <circle cx="180" cy="40" r="2" fill="#D4A72C" opacity="0.3" />
      
      <path d="M120,20 L140,40 M120,40 L140,20" stroke="#D4A72C" stroke-width="1" opacity="0.3" />
      <path d="M30,150 L50,170 M30,170 L50,150" stroke="#D4A72C" stroke-width="1" opacity="0.3" />
    </pattern>
  </defs>
  
  <rect width="100%" height="100%" fill="url(#topo-pattern)" />
</svg> 