<svg width="200" height="200" viewBox="0 0 200 200" fill="none" xmlns="http://www.w3.org/2000/svg">
  <path d="M20,180 Q40,160 60,180 Q80,200 100,180 Q120,160 140,180 Q160,200 180,180" stroke="#4A6D33" stroke-width="2" fill="none"/>
  <path d="M20,160 Q40,140 60,160 Q80,180 100,160 Q120,140 140,160 Q160,180 180,160" stroke="#4A6D33" stroke-width="2" fill="none"/>
  <path d="M20,140 Q40,120 60,140 Q80,160 100,140 Q120,120 140,140 Q160,160 180,140" stroke="#4A6D33" stroke-width="2" fill="none"/>
  <path d="M20,120 Q40,100 60,120 Q80,140 100,120 Q120,100 140,120 Q160,140 180,120" stroke="#4A6D33" stroke-width="2" fill="none"/>
  <path d="M20,100 Q40,80 60,100 Q80,120 100,100 Q120,80 140,100 Q160,120 180,100" stroke="#4A6D33" stroke-width="2" fill="none"/>
  <path d="M20,80 Q40,60 60,80 Q80,100 100,80 Q120,60 140,80 Q160,100 180,80" stroke="#4A6D33" stroke-width="2" fill="none"/>
  <path d="M20,60 Q40,40 60,60 Q80,80 100,60 Q120,40 140,60 Q160,80 180,60" stroke="#4A6D33" stroke-width="2" fill="none"/>
  <path d="M20,40 Q40,20 60,40 Q80,60 100,40 Q120,20 140,40 Q160,60 180,40" stroke="#4A6D33" stroke-width="2" fill="none"/>
  <path d="M20,20 Q40,0 60,20 Q80,40 100,20 Q120,0 140,20 Q160,40 180,20" stroke="#4A6D33" stroke-width="2" fill="none"/>
</svg>
